{
  "accessors": [
    {
      "bufferView": 2,
      "componentType": 5126,
      "count": 52858,
      "max": [
        22.305400848388672,
        -1.1102999448776245,
        8.3985996246337891
      ],
      "min": [
        -16.989299774169922,
        -37.650699615478516,
        -9.3045997619628906
      ],
      "type": "VEC3"
    },
    {
      "bufferView": 2,
      "byteOffset": 634296,
      "componentType": 5126,
      "count": 52858,
      "max": [
        0.99999547004699707,
        0.99982434511184692,
        0.99999880790710449
      ],
      "min": [
        -0.99999356269836426,
        -0.99999392032623291,
        -0.99998736381530762
      ],
      "type": "VEC3"
    },
    {
      "bufferView": 3,
      "componentType": 5126,
      "count": 52858,
      "max": [
        0.99999850988388062,
        0.99999159574508667,
        0.9999423623085022,
        1
      ],
      "min": [
        -0.99999797344207764,
        -0.99996274709701538,
        -0.99999576807022095,
        -1
      ],
      "type": "VEC4"
    },
    {
      "bufferView": 1,
      "componentType": 5126,
      "count": 52858,
      "max": [
        0.99900001287460327,
        0.99580001831054688
      ],
      "min": [
        0.0010999999940395355,
        0.0010000000474974513
      ],
      "type": "VEC2"
    },
    {
      "bufferView": 0,
      "componentType": 5125,
      "count": 286542,
      "max": [
        52857
      ],
      "min": [
        0
      ],
      "type": "SCALAR"
    }
  ],
  "asset": {
    "extras": {
      "author": "3dhdscan (https://sketchfab.com/3dhdscan)",
      "license": "CC-BY-4.0 (http://creativecommons.org/licenses/by/4.0/)",
      "source": "https://sketchfab.com/3d-models/statue-of-a-hunter-f777e0a58bd84e7f945a9dd688eab27a",
      "title": "Statue of a hunter"
    },
    "generator": "Sketchfab-6.21.0",
    "version": "2.0"
  },
  "bufferViews": [
    {
      "buffer": 0,
      "byteLength": 1146168,
      "byteOffset": 0,
      "name": "floatBufferViews",
      "target": 34963
    },
    {
      "buffer": 0,
      "byteLength": 422864,
      "byteOffset": 1146168,
      "byteStride": 8,
      "name": "floatBufferViews",
      "target": 34962
    },
    {
      "buffer": 0,
      "byteLength": 1268592,
      "byteOffset": 1569032,
      "byteStride": 12,
      "name": "floatBufferViews",
      "target": 34962
    },
    {
      "buffer": 0,
      "byteLength": 845728,
      "byteOffset": 2837624,
      "byteStride": 16,
      "name": "floatBufferViews",
      "target": 34962
    }
  ],
  "buffers": [
    {
      "byteLength": 3683352,
      "uri": "scene.bin"
    }
  ],
  "images": [
    {
      "uri": "textures/socha_100k_baseColor.jpeg"
    },
    {
      "uri": "textures/socha_100k_metallicRoughness.png"
    },
    {
      "uri": "textures/socha_100k_normal.jpeg"
    }
  ],
  "materials": [
    {
      "doubleSided": false,
      "name": "socha_100k",
      "normalTexture": {
        "index": 2,
        "scale": 0.4529344512195122,
        "texCoord": 0
      },
      "occlusionTexture": {
        "index": 1,
        "strength": 1,
        "texCoord": 0
      },
      "pbrMetallicRoughness": {
        "baseColorFactor": [
          1,
          1,
          1,
          1
        ],
        "baseColorTexture": {
          "index": 0,
          "texCoord": 0
        },
        "metallicFactor": 0,
        "metallicRoughnessTexture": {
          "index": 1,
          "texCoord": 0
        },
        "roughnessFactor": 1
      }
    }
  ],
  "meshes": [
    {
      "primitives": [
        {
          "attributes": {
            "NORMAL": 1,
            "POSITION": 0,
            "TANGENT": 2,
            "TEXCOORD_0": 3
          },
          "indices": 4,
          "material": 0,
          "mode": 4
        }
      ]
    }
  ],
  "nodes": [
    {
      "children": [
        1
      ],
      "name": "RootNode (gltf orientation matrix)",
      "rotation": [
        -0.70710678118654746,
        -0,
        -0,
        0.70710678118654757
      ]
    },
    {
      "children": [
        2
      ],
      "matrix": [
        1,
        0,
        0,
        0,
        0,
        -2.2204460492503131e-16,
        -1,
        0,
        0,
        1,
        -2.2204460492503131e-16,
        0,
        0,
        -18.927471160888672,
        -19.833480834960938,
        1
      ],
      "name": "RootNode (model correction matrix)"
    },
    {
      "children": [
        3
      ],
      "name": "socha_100kuw.obj.cleaner.materialmerger.gles"
    },
    {
      "mesh": 0,
      "name": ""
    }
  ],
  "samplers": [
    {
      "magFilter": 9729,
      "minFilter": 9987,
      "wrapS": 33071,
      "wrapT": 33071
    }
  ],
  "scene": 0,
  "scenes": [
    {
      "name": "OSG_Scene",
      "nodes": [
        0
      ]
    }
  ],
  "textures": [
    {
      "sampler": 0,
      "source": 0
    },
    {
      "sampler": 0,
      "source": 1
    },
    {
      "sampler": 0,
      "source": 2
    }
  ]
}

